const cueSet1 = [
  {
          "duration": 0.25862050000000003,
          "durationTicks": 7680,
          "midi": 42,
          "name": "F#2",
          "ticks": 0,
          "time": 0,
          "velocity": 0.7874015748031497
        },
        {
          "duration": 0.25862050000000003,
          "durationTicks": 7680,
          "midi": 49,
          "name": "C#3",
          "ticks": 0,
          "time": 0,
          "velocity": 0.7874015748031497
        },
        {
          "duration": 0.12931025000000002,
          "durationTicks": 3840,
          "midi": 40,
          "name": "E2",
          "ticks": 7680,
          "time": 0.25862050000000003,
          "velocity": 0.7874015748031497
        },
        {
          "duration": 0.25862050000000003,
          "durationTicks": 7680,
          "midi": 56,
          "name": "G#3",
          "ticks": 7680,
          "time": 0.25862050000000003,
          "velocity": 0.7874015748031497
        },
        {
          "duration": 0.12931025000000002,
          "durationTicks": 3840,
          "midi": 41,
          "name": "F2",
          "ticks": 11520,
          "time": 0.38793075000000005,
          "velocity": 0.7874015748031497
        },
        {
          "duration": 0.12931025000000007,
          "durationTicks": 3840,
          "midi": 40,
          "name": "E2",
          "ticks": 15360,
          "time": 0.5172410000000001,
          "velocity": 0.7874015748031497
        },
        {
          "duration": 0.25862050000000003,
          "durationTicks": 7680,
          "midi": 50,
          "name": "D3",
          "ticks": 15360,
          "time": 0.5172410000000001,
          "velocity": 0.7874015748031497
        },
        {
          "duration": 0.12931024999999996,
          "durationTicks": 3840,
          "midi": 55,
          "name": "G3",
          "ticks": 19200,
          "time": 0.6465512500000001,
          "velocity": 0.7874015748031497
        },
        {
          "duration": 0.25862050000000003,
          "durationTicks": 7680,
          "midi": 41,
          "name": "F2",
          "ticks": 23040,
          "time": 0.7758615000000001,
          "velocity": 0.7874015748031497
        },
        {
          "duration": 0.25862050000000003,
          "durationTicks": 7680,
          "midi": 57,
          "name": "A3",
          "ticks": 23040,
          "time": 0.7758615000000001,
          "velocity": 0.7874015748031497
        },
        {
          "duration": 0.25862050000000014,
          "durationTicks": 7680,
          "midi": 49,
          "name": "C#3",
          "ticks": 30720,
          "time": 1.0344820000000001,
          "velocity": 0.7874015748031497
        },
        {
          "duration": 0.12931025000000007,
          "durationTicks": 3840,
          "midi": 60,
          "name": "C4",
          "ticks": 30720,
          "time": 1.0344820000000001,
          "velocity": 0.7874015748031497
        },
        {
          "duration": 0.2586204999999999,
          "durationTicks": 7680,
          "midi": 44,
          "name": "G#2",
          "ticks": 38400,
          "time": 1.2931025000000003,
          "velocity": 0.7874015748031497
        },
        {
          "duration": 0.2586204999999999,
          "durationTicks": 7680,
          "midi": 59,
          "name": "B3",
          "ticks": 38400,
          "time": 1.2931025000000003,
          "velocity": 0.7874015748031497
        },
        {
          "duration": 0.2586204999999999,
          "durationTicks": 7680,
          "midi": 52,
          "name": "E3",
          "ticks": 46080,
          "time": 1.5517230000000002,
          "velocity": 0.7874015748031497
        },
        {
          "duration": 0.12931025000000007,
          "durationTicks": 3840,
          "midi": 57,
          "name": "A3",
          "ticks": 46080,
          "time": 1.5517230000000002,
          "velocity": 0.7874015748031497
        },
        {
          "duration": 0.25862050000000014,
          "durationTicks": 7680,
          "midi": 43,
          "name": "G2",
          "ticks": 53760,
          "time": 1.8103435,
          "velocity": 0.7874015748031497
        },
        {
          "duration": 0.25862050000000014,
          "durationTicks": 7680,
          "midi": 54,
          "name": "F#3",
          "ticks": 53760,
          "time": 1.8103435,
          "velocity": 0.7874015748031497
        },
        {
          "duration": 0.25862050000000014,
          "durationTicks": 7680,
          "midi": 42,
          "name": "F#2",
          "ticks": 61440,
          "time": 2.0689640000000002,
          "velocity": 0.7874015748031497
        },
        {
          "duration": 0.25862050000000014,
          "durationTicks": 7680,
          "midi": 49,
          "name": "C#3",
          "ticks": 61440,
          "time": 2.0689640000000002,
          "velocity": 0.7874015748031497
        },
        {
          "duration": 0.12931025000000007,
          "durationTicks": 3840,
          "midi": 40,
          "name": "E2",
          "ticks": 69120,
          "time": 2.3275845000000004,
          "velocity": 0.7874015748031497
        },
        {
          "duration": 0.25862050000000014,
          "durationTicks": 7680,
          "midi": 56,
          "name": "G#3",
          "ticks": 69120,
          "time": 2.3275845000000004,
          "velocity": 0.7874015748031497
        },
        {
          "duration": 0.12931025000000007,
          "durationTicks": 3840,
          "midi": 41,
          "name": "F2",
          "ticks": 72960,
          "time": 2.4568947500000005,
          "velocity": 0.7874015748031497
        },
        {
          "duration": 0.12931024999999963,
          "durationTicks": 3840,
          "midi": 40,
          "name": "E2",
          "ticks": 76800,
          "time": 2.5862050000000005,
          "velocity": 0.7874015748031497
        },
        {
          "duration": 0.2586204999999997,
          "durationTicks": 7680,
          "midi": 50,
          "name": "D3",
          "ticks": 76800,
          "time": 2.5862050000000005,
          "velocity": 0.7874015748031497
        },
        {
          "duration": 0.12931025000000007,
          "durationTicks": 3840,
          "midi": 55,
          "name": "G3",
          "ticks": 80640,
          "time": 2.71551525,
          "velocity": 0.7874015748031497
        },
        {
          "duration": 0.25862050000000014,
          "durationTicks": 7680,
          "midi": 41,
          "name": "F2",
          "ticks": 84480,
          "time": 2.8448255000000002,
          "velocity": 0.7874015748031497
        },
        {
          "duration": 0.25862050000000014,
          "durationTicks": 7680,
          "midi": 57,
          "name": "A3",
          "ticks": 84480,
          "time": 2.8448255000000002,
          "velocity": 0.7874015748031497
        },
        {
          "duration": 0.25862050000000014,
          "durationTicks": 7680,
          "midi": 49,
          "name": "C#3",
          "ticks": 92160,
          "time": 3.1034460000000004,
          "velocity": 0.7874015748031497
        },
        {
          "duration": 0.12931025000000007,
          "durationTicks": 3840,
          "midi": 60,
          "name": "C4",
          "ticks": 92160,
          "time": 3.1034460000000004,
          "velocity": 0.7874015748031497
        },
        {
          "duration": 0.2586204999999997,
          "durationTicks": 7680,
          "midi": 44,
          "name": "G#2",
          "ticks": 99840,
          "time": 3.3620665000000005,
          "velocity": 0.7874015748031497
        },
        {
          "duration": 0.2586204999999997,
          "durationTicks": 7680,
          "midi": 59,
          "name": "B3",
          "ticks": 99840,
          "time": 3.3620665000000005,
          "velocity": 0.7874015748031497
        },
        {
          "duration": 0.25862050000000014,
          "durationTicks": 7680,
          "midi": 52,
          "name": "E3",
          "ticks": 107520,
          "time": 3.620687,
          "velocity": 0.7874015748031497
        },
        {
          "duration": 0.12931025000000007,
          "durationTicks": 3840,
          "midi": 57,
          "name": "A3",
          "ticks": 107520,
          "time": 3.620687,
          "velocity": 0.7874015748031497
        },
        {
          "duration": 0.25862050000000014,
          "durationTicks": 7680,
          "midi": 43,
          "name": "G2",
          "ticks": 115200,
          "time": 3.8793075000000004,
          "velocity": 0.7874015748031497
        },
        {
          "duration": 0.25862050000000014,
          "durationTicks": 7680,
          "midi": 54,
          "name": "F#3",
          "ticks": 115200,
          "time": 3.8793075000000004,
          "velocity": 0.7874015748031497
        },
        {
          "duration": 0.25862050000000014,
          "durationTicks": 7680,
          "midi": 42,
          "name": "F#2",
          "ticks": 122880,
          "time": 4.1379280000000005,
          "velocity": 0.7874015748031497
        },
        {
          "duration": 0.25862050000000014,
          "durationTicks": 7680,
          "midi": 49,
          "name": "C#3",
          "ticks": 122880,
          "time": 4.1379280000000005,
          "velocity": 0.7874015748031497
        },
        {
          "duration": 0.12931024999999963,
          "durationTicks": 3840,
          "midi": 40,
          "name": "E2",
          "ticks": 130560,
          "time": 4.396548500000001,
          "velocity": 0.7874015748031497
        },
        {
          "duration": 0.25862050000000014,
          "durationTicks": 7680,
          "midi": 56,
          "name": "G#3",
          "ticks": 130560,
          "time": 4.396548500000001,
          "velocity": 0.7874015748031497
        },
        {
          "duration": 0.12931025000000052,
          "durationTicks": 3840,
          "midi": 41,
          "name": "F2",
          "ticks": 134400,
          "time": 4.52585875,
          "velocity": 0.7874015748031497
        },
        {
          "duration": 0.12931024999999963,
          "durationTicks": 3840,
          "midi": 40,
          "name": "E2",
          "ticks": 138240,
          "time": 4.655169000000001,
          "velocity": 0.7874015748031497
        },
        {
          "duration": 0.25862050000000014,
          "durationTicks": 7680,
          "midi": 50,
          "name": "D3",
          "ticks": 138240,
          "time": 4.655169000000001,
          "velocity": 0.7874015748031497
        },
        {
          "duration": 0.12931025000000052,
          "durationTicks": 3840,
          "midi": 55,
          "name": "G3",
          "ticks": 142080,
          "time": 4.78447925,
          "velocity": 0.7874015748031497
        },
        {
          "duration": 0.25862050000000014,
          "durationTicks": 7680,
          "midi": 41,
          "name": "F2",
          "ticks": 145920,
          "time": 4.913789500000001,
          "velocity": 0.7874015748031497
        },
        {
          "duration": 0.25862050000000014,
          "durationTicks": 7680,
          "midi": 57,
          "name": "A3",
          "ticks": 145920,
          "time": 4.913789500000001,
          "velocity": 0.7874015748031497
        },
        {
          "duration": 0.25862049999999925,
          "durationTicks": 7680,
          "midi": 49,
          "name": "C#3",
          "ticks": 153600,
          "time": 5.172410000000001,
          "velocity": 0.7874015748031497
        },
        {
          "duration": 0.12931024999999963,
          "durationTicks": 3840,
          "midi": 60,
          "name": "C4",
          "ticks": 153600,
          "time": 5.172410000000001,
          "velocity": 0.7874015748031497
        },
        {
          "duration": 0.25862050000000014,
          "durationTicks": 7680,
          "midi": 44,
          "name": "G#2",
          "ticks": 161280,
          "time": 5.4310305,
          "velocity": 0.7874015748031497
        },
        {
          "duration": 0.25862050000000014,
          "durationTicks": 7680,
          "midi": 59,
          "name": "B3",
          "ticks": 161280,
          "time": 5.4310305,
          "velocity": 0.7874015748031497
        },
        {
          "duration": 0.25862050000000014,
          "durationTicks": 7680,
          "midi": 52,
          "name": "E3",
          "ticks": 168960,
          "time": 5.6896510000000005,
          "velocity": 0.7874015748031497
        },
        {
          "duration": 0.12931025000000052,
          "durationTicks": 3840,
          "midi": 57,
          "name": "A3",
          "ticks": 168960,
          "time": 5.6896510000000005,
          "velocity": 0.7874015748031497
        },
        {
          "duration": 0.25862050000000014,
          "durationTicks": 7680,
          "midi": 43,
          "name": "G2",
          "ticks": 176640,
          "time": 5.948271500000001,
          "velocity": 0.7874015748031497
        },
        {
          "duration": 0.25862050000000014,
          "durationTicks": 7680,
          "midi": 54,
          "name": "F#3",
          "ticks": 176640,
          "time": 5.948271500000001,
          "velocity": 0.7874015748031497
        },
        {
          "duration": 0.25862050000000014,
          "durationTicks": 7680,
          "midi": 42,
          "name": "F#2",
          "ticks": 184320,
          "time": 6.206892000000001,
          "velocity": 0.7874015748031497
        },
        {
          "duration": 0.25862050000000014,
          "durationTicks": 7680,
          "midi": 49,
          "name": "C#3",
          "ticks": 184320,
          "time": 6.206892000000001,
          "velocity": 0.7874015748031497
        },
        {
          "duration": 0.12931024999999963,
          "durationTicks": 3840,
          "midi": 40,
          "name": "E2",
          "ticks": 192000,
          "time": 6.465512500000001,
          "velocity": 0.7874015748031497
        },
        {
          "duration": 0.25862050000000014,
          "durationTicks": 7680,
          "midi": 56,
          "name": "G#3",
          "ticks": 192000,
          "time": 6.465512500000001,
          "velocity": 0.7874015748031497
        },
        {
          "duration": 0.12931025000000052,
          "durationTicks": 3840,
          "midi": 41,
          "name": "F2",
          "ticks": 195840,
          "time": 6.5948227500000005,
          "velocity": 0.7874015748031497
        },
        {
          "duration": 0.12931024999999963,
          "durationTicks": 3840,
          "midi": 40,
          "name": "E2",
          "ticks": 199680,
          "time": 6.724133000000001,
          "velocity": 0.7874015748031497
        },
        {
          "duration": 0.25862050000000014,
          "durationTicks": 7680,
          "midi": 50,
          "name": "D3",
          "ticks": 199680,
          "time": 6.724133000000001,
          "velocity": 0.7874015748031497
        },
        {
          "duration": 0.12931025000000052,
          "durationTicks": 3840,
          "midi": 55,
          "name": "G3",
          "ticks": 203520,
          "time": 6.853443250000001,
          "velocity": 0.7874015748031497
        },
        {
          "duration": 0.25862049999999925,
          "durationTicks": 7680,
          "midi": 41,
          "name": "F2",
          "ticks": 207360,
          "time": 6.982753500000001,
          "velocity": 0.7874015748031497
        },
        {
          "duration": 0.25862049999999925,
          "durationTicks": 7680,
          "midi": 57,
          "name": "A3",
          "ticks": 207360,
          "time": 6.982753500000001,
          "velocity": 0.7874015748031497
        },
        {
          "duration": 0.25862050000000014,
          "durationTicks": 7680,
          "midi": 49,
          "name": "C#3",
          "ticks": 215040,
          "time": 7.241374,
          "velocity": 0.7874015748031497
        },
        {
          "duration": 0.12931025000000052,
          "durationTicks": 3840,
          "midi": 60,
          "name": "C4",
          "ticks": 215040,
          "time": 7.241374,
          "velocity": 0.7874015748031497
        },
        {
          "duration": 0.25862050000000014,
          "durationTicks": 7680,
          "midi": 44,
          "name": "G#2",
          "ticks": 222720,
          "time": 7.499994500000001,
          "velocity": 0.7874015748031497
        },
        {
          "duration": 0.25862050000000014,
          "durationTicks": 7680,
          "midi": 59,
          "name": "B3",
          "ticks": 222720,
          "time": 7.499994500000001,
          "velocity": 0.7874015748031497
        },
        {
          "duration": 0.25862050000000103,
          "durationTicks": 7680,
          "midi": 52,
          "name": "E3",
          "ticks": 230400,
          "time": 7.758615000000001,
          "velocity": 0.7874015748031497
        },
        {
          "duration": 0.12931025000000052,
          "durationTicks": 3840,
          "midi": 57,
          "name": "A3",
          "ticks": 230400,
          "time": 7.758615000000001,
          "velocity": 0.7874015748031497
        },
        {
          "duration": 0.25862049999999925,
          "durationTicks": 7680,
          "midi": 43,
          "name": "G2",
          "ticks": 238080,
          "time": 8.017235500000002,
          "velocity": 0.7874015748031497
        },
        {
          "duration": 0.25862049999999925,
          "durationTicks": 7680,
          "midi": 54,
          "name": "F#3",
          "ticks": 238080,
          "time": 8.017235500000002,
          "velocity": 0.7874015748031497
        },
        {
          "duration": 0.25862049999999925,
          "durationTicks": 7680,
          "midi": 49,
          "name": "C#3",
          "ticks": 245760,
          "time": 8.275856000000001,
          "velocity": 0.7874015748031497
        },
        {
          "duration": 0.25862049999999925,
          "durationTicks": 7680,
          "midi": 56,
          "name": "G#3",
          "ticks": 245760,
          "time": 8.275856000000001,
          "velocity": 0.7874015748031497
        },
        {
          "duration": 0.1293102500000014,
          "durationTicks": 3840,
          "midi": 47,
          "name": "B2",
          "ticks": 253440,
          "time": 8.5344765,
          "velocity": 0.7874015748031497
        },
        {
          "duration": 0.25862050000000103,
          "durationTicks": 7680,
          "midi": 63,
          "name": "D#4",
          "ticks": 253440,
          "time": 8.5344765,
          "velocity": 0.7874015748031497
        },
        {
          "duration": 0.12931024999999963,
          "durationTicks": 3840,
          "midi": 48,
          "name": "C3",
          "ticks": 257280,
          "time": 8.663786750000002,
          "velocity": 0.7874015748031497
        },
        {
          "duration": 0.12931024999999963,
          "durationTicks": 3840,
          "midi": 47,
          "name": "B2",
          "ticks": 261120,
          "time": 8.793097000000001,
          "velocity": 0.7874015748031497
        },
        {
          "duration": 0.25862049999999925,
          "durationTicks": 7680,
          "midi": 57,
          "name": "A3",
          "ticks": 261120,
          "time": 8.793097000000001,
          "velocity": 0.7874015748031497
        },
        {
          "duration": 0.12931024999999963,
          "durationTicks": 3840,
          "midi": 62,
          "name": "D4",
          "ticks": 264960,
          "time": 8.922407250000001,
          "velocity": 0.7874015748031497
        },
        {
          "duration": 0.25862050000000103,
          "durationTicks": 7680,
          "midi": 48,
          "name": "C3",
          "ticks": 268800,
          "time": 9.0517175,
          "velocity": 0.7874015748031497
        },
        {
          "duration": 0.25862050000000103,
          "durationTicks": 7680,
          "midi": 64,
          "name": "E4",
          "ticks": 268800,
          "time": 9.0517175,
          "velocity": 0.7874015748031497
        },
        {
          "duration": 0.25862049999999925,
          "durationTicks": 7680,
          "midi": 56,
          "name": "G#3",
          "ticks": 276480,
          "time": 9.310338000000002,
          "velocity": 0.7874015748031497
        },
        {
          "duration": 0.12931024999999963,
          "durationTicks": 3840,
          "midi": 67,
          "name": "G4",
          "ticks": 276480,
          "time": 9.310338000000002,
          "velocity": 0.7874015748031497
        },
        {
          "duration": 0.25862050000000103,
          "durationTicks": 7680,
          "midi": 51,
          "name": "D#3",
          "ticks": 284160,
          "time": 9.5689585,
          "velocity": 0.7874015748031497
        },
        {
          "duration": 0.25862050000000103,
          "durationTicks": 7680,
          "midi": 66,
          "name": "F#4",
          "ticks": 284160,
          "time": 9.5689585,
          "velocity": 0.7874015748031497
        },
        {
          "duration": 0.25862049999999925,
          "durationTicks": 7680,
          "midi": 59,
          "name": "B3",
          "ticks": 291840,
          "time": 9.827579000000002,
          "velocity": 0.7874015748031497
        },
        {
          "duration": 0.12931024999999963,
          "durationTicks": 3840,
          "midi": 64,
          "name": "E4",
          "ticks": 291840,
          "time": 9.827579000000002,
          "velocity": 0.7874015748031497
        },
        {
          "duration": 0.25862050000000103,
          "durationTicks": 7680,
          "midi": 50,
          "name": "D3",
          "ticks": 299520,
          "time": 10.086199500000001,
          "velocity": 0.7874015748031497
        },
        {
          "duration": 0.25862050000000103,
          "durationTicks": 7680,
          "midi": 61,
          "name": "C#4",
          "ticks": 299520,
          "time": 10.086199500000001,
          "velocity": 0.7874015748031497
        },
        {
          "duration": 0.25862049999999925,
          "durationTicks": 7680,
          "midi": 49,
          "name": "C#3",
          "ticks": 307200,
          "time": 10.344820000000002,
          "velocity": 0.7874015748031497
        },
        {
          "duration": 0.25862049999999925,
          "durationTicks": 7680,
          "midi": 56,
          "name": "G#3",
          "ticks": 307200,
          "time": 10.344820000000002,
          "velocity": 0.7874015748031497
        },
        {
          "duration": 0.12931024999999963,
          "durationTicks": 3840,
          "midi": 47,
          "name": "B2",
          "ticks": 314880,
          "time": 10.603440500000001,
          "velocity": 0.7874015748031497
        },
        {
          "duration": 0.25862049999999925,
          "durationTicks": 7680,
          "midi": 63,
          "name": "D#4",
          "ticks": 314880,
          "time": 10.603440500000001,
          "velocity": 0.7874015748031497
        },
        {
          "duration": 0.12931024999999963,
          "durationTicks": 3840,
          "midi": 48,
          "name": "C3",
          "ticks": 318720,
          "time": 10.732750750000001,
          "velocity": 0.7874015748031497
        },
        {
          "duration": 0.1293102500000014,
          "durationTicks": 3840,
          "midi": 47,
          "name": "B2",
          "ticks": 322560,
          "time": 10.862061,
          "velocity": 0.7874015748031497
        },
        {
          "duration": 0.25862050000000103,
          "durationTicks": 7680,
          "midi": 57,
          "name": "A3",
          "ticks": 322560,
          "time": 10.862061,
          "velocity": 0.7874015748031497
        },
        {
          "duration": 0.12931024999999963,
          "durationTicks": 3840,
          "midi": 62,
          "name": "D4",
          "ticks": 326400,
          "time": 10.991371250000002,
          "velocity": 0.7874015748031497
        },
        {
          "duration": 0.25862049999999925,
          "durationTicks": 7680,
          "midi": 48,
          "name": "C3",
          "ticks": 330240,
          "time": 11.120681500000002,
          "velocity": 0.7874015748031497
        },
        {
          "duration": 0.25862049999999925,
          "durationTicks": 7680,
          "midi": 64,
          "name": "E4",
          "ticks": 330240,
          "time": 11.120681500000002,
          "velocity": 0.7874015748031497
        },
        {
          "duration": 0.25862050000000103,
          "durationTicks": 7680,
          "midi": 56,
          "name": "G#3",
          "ticks": 337920,
          "time": 11.379302000000001,
          "velocity": 0.7874015748031497
        },
        {
          "duration": 0.12931024999999963,
          "durationTicks": 3840,
          "midi": 67,
          "name": "G4",
          "ticks": 337920,
          "time": 11.379302000000001,
          "velocity": 0.7874015748031497
        },
        {
          "duration": 0.25862049999999925,
          "durationTicks": 7680,
          "midi": 51,
          "name": "D#3",
          "ticks": 345600,
          "time": 11.637922500000002,
          "velocity": 0.7874015748031497
        },
        {
          "duration": 0.25862049999999925,
          "durationTicks": 7680,
          "midi": 66,
          "name": "F#4",
          "ticks": 345600,
          "time": 11.637922500000002,
          "velocity": 0.7874015748031497
        },
        {
          "duration": 0.25862050000000103,
          "durationTicks": 7680,
          "midi": 59,
          "name": "B3",
          "ticks": 353280,
          "time": 11.896543000000001,
          "velocity": 0.7874015748031497
        },
        {
          "duration": 0.12931024999999963,
          "durationTicks": 3840,
          "midi": 64,
          "name": "E4",
          "ticks": 353280,
          "time": 11.896543000000001,
          "velocity": 0.7874015748031497
        },
        {
          "duration": 0.25862049999999925,
          "durationTicks": 7680,
          "midi": 50,
          "name": "D3",
          "ticks": 360960,
          "time": 12.155163500000002,
          "velocity": 0.7874015748031497
        },
        {
          "duration": 0.25862049999999925,
          "durationTicks": 7680,
          "midi": 61,
          "name": "C#4",
          "ticks": 360960,
          "time": 12.155163500000002,
          "velocity": 0.7874015748031497
        },
        {
          "duration": 0.25862049999999925,
          "durationTicks": 7680,
          "midi": 49,
          "name": "C#3",
          "ticks": 368640,
          "time": 12.413784000000001,
          "velocity": 0.7874015748031497
        },
        {
          "duration": 0.25862049999999925,
          "durationTicks": 7680,
          "midi": 56,
          "name": "G#3",
          "ticks": 368640,
          "time": 12.413784000000001,
          "velocity": 0.7874015748031497
        },
        {
          "duration": 0.1293102500000014,
          "durationTicks": 3840,
          "midi": 47,
          "name": "B2",
          "ticks": 376320,
          "time": 12.6724045,
          "velocity": 0.7874015748031497
        },
        {
          "duration": 0.25862050000000103,
          "durationTicks": 7680,
          "midi": 63,
          "name": "D#4",
          "ticks": 376320,
          "time": 12.6724045,
          "velocity": 0.7874015748031497
        },
        {
          "duration": 0.12931024999999963,
          "durationTicks": 3840,
          "midi": 48,
          "name": "C3",
          "ticks": 380160,
          "time": 12.801714750000002,
          "velocity": 0.7874015748031497
        },
        {
          "duration": 0.12931024999999963,
          "durationTicks": 3840,
          "midi": 47,
          "name": "B2",
          "ticks": 384000,
          "time": 12.931025000000002,
          "velocity": 0.7874015748031497
        },
        {
          "duration": 0.25862049999999925,
          "durationTicks": 7680,
          "midi": 57,
          "name": "A3",
          "ticks": 384000,
          "time": 12.931025000000002,
          "velocity": 0.7874015748031497
        },
        {
          "duration": 0.12931024999999963,
          "durationTicks": 3840,
          "midi": 62,
          "name": "D4",
          "ticks": 387840,
          "time": 13.060335250000001,
          "velocity": 0.7874015748031497
        },
        {
          "duration": 0.25862050000000103,
          "durationTicks": 7680,
          "midi": 48,
          "name": "C3",
          "ticks": 391680,
          "time": 13.189645500000001,
          "velocity": 0.7874015748031497
        },
        {
          "duration": 0.25862050000000103,
          "durationTicks": 7680,
          "midi": 64,
          "name": "E4",
          "ticks": 391680,
          "time": 13.189645500000001,
          "velocity": 0.7874015748031497
        },
        {
          "duration": 0.25862049999999925,
          "durationTicks": 7680,
          "midi": 56,
          "name": "G#3",
          "ticks": 399360,
          "time": 13.448266000000002,
          "velocity": 0.7874015748031497
        },
        {
          "duration": 0.12931024999999963,
          "durationTicks": 3840,
          "midi": 67,
          "name": "G4",
          "ticks": 399360,
          "time": 13.448266000000002,
          "velocity": 0.7874015748031497
        },
        {
          "duration": 0.25862050000000103,
          "durationTicks": 7680,
          "midi": 51,
          "name": "D#3",
          "ticks": 407040,
          "time": 13.706886500000001,
          "velocity": 0.7874015748031497
        },
        {
          "duration": 0.25862050000000103,
          "durationTicks": 7680,
          "midi": 66,
          "name": "F#4",
          "ticks": 407040,
          "time": 13.706886500000001,
          "velocity": 0.7874015748031497
        },
        {
          "duration": 0.25862049999999925,
          "durationTicks": 7680,
          "midi": 59,
          "name": "B3",
          "ticks": 414720,
          "time": 13.965507000000002,
          "velocity": 0.7874015748031497
        },
        {
          "duration": 0.12931024999999963,
          "durationTicks": 3840,
          "midi": 64,
          "name": "E4",
          "ticks": 414720,
          "time": 13.965507000000002,
          "velocity": 0.7874015748031497
        },
        {
          "duration": 0.25862049999999925,
          "durationTicks": 7680,
          "midi": 50,
          "name": "D3",
          "ticks": 422400,
          "time": 14.224127500000002,
          "velocity": 0.7874015748031497
        },
        {
          "duration": 0.25862049999999925,
          "durationTicks": 7680,
          "midi": 61,
          "name": "C#4",
          "ticks": 422400,
          "time": 14.224127500000002,
          "velocity": 0.7874015748031497
        },
        {
          "duration": 0.25862050000000103,
          "durationTicks": 7680,
          "midi": 49,
          "name": "C#3",
          "ticks": 430080,
          "time": 14.482748,
          "velocity": 0.7874015748031497
        },
        {
          "duration": 0.25862050000000103,
          "durationTicks": 7680,
          "midi": 56,
          "name": "G#3",
          "ticks": 430080,
          "time": 14.482748,
          "velocity": 0.7874015748031497
        },
        {
          "duration": 0.12931024999999963,
          "durationTicks": 3840,
          "midi": 47,
          "name": "B2",
          "ticks": 437760,
          "time": 14.741368500000002,
          "velocity": 0.7874015748031497
        },
        {
          "duration": 0.25862049999999925,
          "durationTicks": 7680,
          "midi": 63,
          "name": "D#4",
          "ticks": 437760,
          "time": 14.741368500000002,
          "velocity": 0.7874015748031497
        },
        {
          "duration": 0.12931024999999963,
          "durationTicks": 3840,
          "midi": 48,
          "name": "C3",
          "ticks": 441600,
          "time": 14.870678750000002,
          "velocity": 0.7874015748031497
        },
        {
          "duration": 0.1293102500000014,
          "durationTicks": 3840,
          "midi": 47,
          "name": "B2",
          "ticks": 445440,
          "time": 14.999989000000001,
          "velocity": 0.7874015748031497
        },
        {
          "duration": 0.25862050000000103,
          "durationTicks": 7680,
          "midi": 57,
          "name": "A3",
          "ticks": 445440,
          "time": 14.999989000000001,
          "velocity": 0.7874015748031497
        },
        {
          "duration": 0.12931024999999963,
          "durationTicks": 3840,
          "midi": 62,
          "name": "D4",
          "ticks": 449280,
          "time": 15.129299250000003,
          "velocity": 0.7874015748031497
        },
        {
          "duration": 0.25862049999999925,
          "durationTicks": 7680,
          "midi": 48,
          "name": "C3",
          "ticks": 453120,
          "time": 15.258609500000002,
          "velocity": 0.7874015748031497
        },
        {
          "duration": 0.25862049999999925,
          "durationTicks": 7680,
          "midi": 64,
          "name": "E4",
          "ticks": 453120,
          "time": 15.258609500000002,
          "velocity": 0.7874015748031497
        },
        {
          "duration": 0.25862050000000103,
          "durationTicks": 7680,
          "midi": 56,
          "name": "G#3",
          "ticks": 460800,
          "time": 15.517230000000001,
          "velocity": 0.7874015748031497
        },
        {
          "duration": 0.12931024999999963,
          "durationTicks": 3840,
          "midi": 67,
          "name": "G4",
          "ticks": 460800,
          "time": 15.517230000000001,
          "velocity": 0.7874015748031497
        },
        {
          "duration": 0.25862050000000103,
          "durationTicks": 7680,
          "midi": 51,
          "name": "D#3",
          "ticks": 468480,
          "time": 15.775850500000002,
          "velocity": 0.7874015748031497
        },
        {
          "duration": 0.25862050000000103,
          "durationTicks": 7680,
          "midi": 66,
          "name": "F#4",
          "ticks": 468480,
          "time": 15.775850500000002,
          "velocity": 0.7874015748031497
        },
        {
          "duration": 0.25862049999999925,
          "durationTicks": 7680,
          "midi": 59,
          "name": "B3",
          "ticks": 476160,
          "time": 16.034471000000003,
          "velocity": 0.7874015748031497
        },
        {
          "duration": 0.12931024999999963,
          "durationTicks": 3840,
          "midi": 64,
          "name": "E4",
          "ticks": 476160,
          "time": 16.034471000000003,
          "velocity": 0.7874015748031497
        },
        {
          "duration": 0.25862049999999925,
          "durationTicks": 7680,
          "midi": 50,
          "name": "D3",
          "ticks": 483840,
          "time": 16.293091500000003,
          "velocity": 0.7874015748031497
        },
        {
          "duration": 0.25862049999999925,
          "durationTicks": 7680,
          "midi": 61,
          "name": "C#4",
          "ticks": 483840,
          "time": 16.293091500000003,
          "velocity": 0.7874015748031497
        },
        {
          "duration": 0.25862049999999925,
          "durationTicks": 7680,
          "midi": 42,
          "name": "F#2",
          "ticks": 491520,
          "time": 16.551712000000002,
          "velocity": 0.7874015748031497
        },
        {
          "duration": 0.25862049999999925,
          "durationTicks": 7680,
          "midi": 49,
          "name": "C#3",
          "ticks": 491520,
          "time": 16.551712000000002,
          "velocity": 0.7874015748031497
        },
        {
          "duration": 0.12931024999999963,
          "durationTicks": 3840,
          "midi": 40,
          "name": "E2",
          "ticks": 499200,
          "time": 16.8103325,
          "velocity": 0.7874015748031497
        },
        {
          "duration": 0.25862049999999925,
          "durationTicks": 7680,
          "midi": 56,
          "name": "G#3",
          "ticks": 499200,
          "time": 16.8103325,
          "velocity": 0.7874015748031497
        },
        {
          "duration": 0.12931024999999963,
          "durationTicks": 3840,
          "midi": 41,
          "name": "F2",
          "ticks": 503040,
          "time": 16.93964275,
          "velocity": 0.7874015748031497
        },
        {
          "duration": 0.12931025000000318,
          "durationTicks": 3840,
          "midi": 40,
          "name": "E2",
          "ticks": 506880,
          "time": 17.068953,
          "velocity": 0.7874015748031497
        },
        {
          "duration": 0.2586205000000028,
          "durationTicks": 7680,
          "midi": 50,
          "name": "D3",
          "ticks": 506880,
          "time": 17.068953,
          "velocity": 0.7874015748031497
        },
        {
          "duration": 0.12931024999999963,
          "durationTicks": 3840,
          "midi": 55,
          "name": "G3",
          "ticks": 510720,
          "time": 17.198263250000004,
          "velocity": 0.7874015748031497
        },
        {
          "duration": 0.25862049999999925,
          "durationTicks": 7680,
          "midi": 41,
          "name": "F2",
          "ticks": 514560,
          "time": 17.327573500000003,
          "velocity": 0.7874015748031497
        },
        {
          "duration": 0.25862049999999925,
          "durationTicks": 7680,
          "midi": 57,
          "name": "A3",
          "ticks": 514560,
          "time": 17.327573500000003,
          "velocity": 0.7874015748031497
        },
        {
          "duration": 0.25862049999999925,
          "durationTicks": 7680,
          "midi": 49,
          "name": "C#3",
          "ticks": 522240,
          "time": 17.586194000000003,
          "velocity": 0.7874015748031497
        },
        {
          "duration": 0.12931024999999963,
          "durationTicks": 3840,
          "midi": 60,
          "name": "C4",
          "ticks": 522240,
          "time": 17.586194000000003,
          "velocity": 0.7874015748031497
        },
        {
          "duration": 0.25862049999999925,
          "durationTicks": 7680,
          "midi": 44,
          "name": "G#2",
          "ticks": 529920,
          "time": 17.844814500000002,
          "velocity": 0.7874015748031497
        },
        {
          "duration": 0.25862049999999925,
          "durationTicks": 7680,
          "midi": 59,
          "name": "B3",
          "ticks": 529920,
          "time": 17.844814500000002,
          "velocity": 0.7874015748031497
        },
        {
          "duration": 0.2586205000000028,
          "durationTicks": 7680,
          "midi": 52,
          "name": "E3",
          "ticks": 537600,
          "time": 18.103435,
          "velocity": 0.7874015748031497
        },
        {
          "duration": 0.12931024999999963,
          "durationTicks": 3840,
          "midi": 57,
          "name": "A3",
          "ticks": 537600,
          "time": 18.103435,
          "velocity": 0.7874015748031497
        },
        {
          "duration": 0.25862049999999925,
          "durationTicks": 7680,
          "midi": 43,
          "name": "G2",
          "ticks": 545280,
          "time": 18.362055500000004,
          "velocity": 0.7874015748031497
        },
        {
          "duration": 0.25862049999999925,
          "durationTicks": 7680,
          "midi": 54,
          "name": "F#3",
          "ticks": 545280,
          "time": 18.362055500000004,
          "velocity": 0.7874015748031497
        },
        {
          "duration": 0.25862049999999925,
          "durationTicks": 7680,
          "midi": 42,
          "name": "F#2",
          "ticks": 552960,
          "time": 18.620676000000003,
          "velocity": 0.7874015748031497
        },
        {
          "duration": 0.25862049999999925,
          "durationTicks": 7680,
          "midi": 49,
          "name": "C#3",
          "ticks": 552960,
          "time": 18.620676000000003,
          "velocity": 0.7874015748031497
        },
        {
          "duration": 0.12931024999999963,
          "durationTicks": 3840,
          "midi": 40,
          "name": "E2",
          "ticks": 560640,
          "time": 18.879296500000002,
          "velocity": 0.7874015748031497
        },
        {
          "duration": 0.25862049999999925,
          "durationTicks": 7680,
          "midi": 56,
          "name": "G#3",
          "ticks": 560640,
          "time": 18.879296500000002,
          "velocity": 0.7874015748031497
        },
        {
          "duration": 0.12931024999999963,
          "durationTicks": 3840,
          "midi": 41,
          "name": "F2",
          "ticks": 564480,
          "time": 19.008606750000002,
          "velocity": 0.7874015748031497
        },
        {
          "duration": 0.12931024999999963,
          "durationTicks": 3840,
          "midi": 40,
          "name": "E2",
          "ticks": 568320,
          "time": 19.137917,
          "velocity": 0.7874015748031497
        },
        {
          "duration": 0.25862049999999925,
          "durationTicks": 7680,
          "midi": 50,
          "name": "D3",
          "ticks": 568320,
          "time": 19.137917,
          "velocity": 0.7874015748031497
        },
        {
          "duration": 0.12931024999999963,
          "durationTicks": 3840,
          "midi": 55,
          "name": "G3",
          "ticks": 572160,
          "time": 19.26722725,
          "velocity": 0.7874015748031497
        },
        {
          "duration": 0.2586205000000028,
          "durationTicks": 7680,
          "midi": 41,
          "name": "F2",
          "ticks": 576000,
          "time": 19.3965375,
          "velocity": 0.7874015748031497
        },
        {
          "duration": 0.2586205000000028,
          "durationTicks": 7680,
          "midi": 57,
          "name": "A3",
          "ticks": 576000,
          "time": 19.3965375,
          "velocity": 0.7874015748031497
        },
        {
          "duration": 0.25862049999999925,
          "durationTicks": 7680,
          "midi": 49,
          "name": "C#3",
          "ticks": 583680,
          "time": 19.655158000000004,
          "velocity": 0.7874015748031497
        },
        {
          "duration": 0.12931024999999963,
          "durationTicks": 3840,
          "midi": 60,
          "name": "C4",
          "ticks": 583680,
          "time": 19.655158000000004,
          "velocity": 0.7874015748031497
        },
        {
          "duration": 0.25862049999999925,
          "durationTicks": 7680,
          "midi": 44,
          "name": "G#2",
          "ticks": 591360,
          "time": 19.913778500000003,
          "velocity": 0.7874015748031497
        },
        {
          "duration": 0.25862049999999925,
          "durationTicks": 7680,
          "midi": 59,
          "name": "B3",
          "ticks": 591360,
          "time": 19.913778500000003,
          "velocity": 0.7874015748031497
        },
        {
          "duration": 0.25862049999999925,
          "durationTicks": 7680,
          "midi": 52,
          "name": "E3",
          "ticks": 599040,
          "time": 20.172399000000002,
          "velocity": 0.7874015748031497
        },
        {
          "duration": 0.12931024999999963,
          "durationTicks": 3840,
          "midi": 57,
          "name": "A3",
          "ticks": 599040,
          "time": 20.172399000000002,
          "velocity": 0.7874015748031497
        },
        {
          "duration": 0.2586205000000028,
          "durationTicks": 7680,
          "midi": 43,
          "name": "G2",
          "ticks": 606720,
          "time": 20.4310195,
          "velocity": 0.7874015748031497
        },
        {
          "duration": 0.2586205000000028,
          "durationTicks": 7680,
          "midi": 54,
          "name": "F#3",
          "ticks": 606720,
          "time": 20.4310195,
          "velocity": 0.7874015748031497
        },
        {
          "duration": 0.25862049999999925,
          "durationTicks": 7680,
          "midi": 42,
          "name": "F#2",
          "ticks": 614400,
          "time": 20.689640000000004,
          "velocity": 0.7874015748031497
        },
        {
          "duration": 0.25862049999999925,
          "durationTicks": 7680,
          "midi": 49,
          "name": "C#3",
          "ticks": 614400,
          "time": 20.689640000000004,
          "velocity": 0.7874015748031497
        },
        {
          "duration": 0.12931024999999963,
          "durationTicks": 3840,
          "midi": 40,
          "name": "E2",
          "ticks": 622080,
          "time": 20.948260500000004,
          "velocity": 0.7874015748031497
        },
        {
          "duration": 0.25862049999999925,
          "durationTicks": 7680,
          "midi": 56,
          "name": "G#3",
          "ticks": 622080,
          "time": 20.948260500000004,
          "velocity": 0.7874015748031497
        },
        {
          "duration": 0.12931024999999963,
          "durationTicks": 3840,
          "midi": 41,
          "name": "F2",
          "ticks": 625920,
          "time": 21.077570750000003,
          "velocity": 0.7874015748031497
        },
        {
          "duration": 0.12931024999999963,
          "durationTicks": 3840,
          "midi": 40,
          "name": "E2",
          "ticks": 629760,
          "time": 21.206881000000003,
          "velocity": 0.7874015748031497
        },
        {
          "duration": 0.25862049999999925,
          "durationTicks": 7680,
          "midi": 50,
          "name": "D3",
          "ticks": 629760,
          "time": 21.206881000000003,
          "velocity": 0.7874015748031497
        },
        {
          "duration": 0.12931024999999963,
          "durationTicks": 3840,
          "midi": 55,
          "name": "G3",
          "ticks": 633600,
          "time": 21.336191250000002,
          "velocity": 0.7874015748031497
        },
        {
          "duration": 0.25862049999999925,
          "durationTicks": 7680,
          "midi": 41,
          "name": "F2",
          "ticks": 637440,
          "time": 21.465501500000002,
          "velocity": 0.7874015748031497
        },
        {
          "duration": 0.25862049999999925,
          "durationTicks": 7680,
          "midi": 57,
          "name": "A3",
          "ticks": 637440,
          "time": 21.465501500000002,
          "velocity": 0.7874015748031497
        },
        {
          "duration": 0.2586205000000028,
          "durationTicks": 7680,
          "midi": 49,
          "name": "C#3",
          "ticks": 645120,
          "time": 21.724122,
          "velocity": 0.7874015748031497
        },
        {
          "duration": 0.12931024999999963,
          "durationTicks": 3840,
          "midi": 60,
          "name": "C4",
          "ticks": 645120,
          "time": 21.724122,
          "velocity": 0.7874015748031497
        },
        {
          "duration": 0.25862049999999925,
          "durationTicks": 7680,
          "midi": 44,
          "name": "G#2",
          "ticks": 652800,
          "time": 21.982742500000004,
          "velocity": 0.7874015748031497
        },
        {
          "duration": 0.25862049999999925,
          "durationTicks": 7680,
          "midi": 59,
          "name": "B3",
          "ticks": 652800,
          "time": 21.982742500000004,
          "velocity": 0.7874015748031497
        },
        {
          "duration": 0.25862049999999925,
          "durationTicks": 7680,
          "midi": 52,
          "name": "E3",
          "ticks": 660480,
          "time": 22.241363000000003,
          "velocity": 0.7874015748031497
        },
        {
          "duration": 0.12931024999999963,
          "durationTicks": 3840,
          "midi": 57,
          "name": "A3",
          "ticks": 660480,
          "time": 22.241363000000003,
          "velocity": 0.7874015748031497
        },
        {
          "duration": 0.25862049999999925,
          "durationTicks": 7680,
          "midi": 43,
          "name": "G2",
          "ticks": 668160,
          "time": 22.499983500000003,
          "velocity": 0.7874015748031497
        },
        {
          "duration": 0.25862049999999925,
          "durationTicks": 7680,
          "midi": 54,
          "name": "F#3",
          "ticks": 668160,
          "time": 22.499983500000003,
          "velocity": 0.7874015748031497
        },
        {
          "duration": 0.25862049999999925,
          "durationTicks": 7680,
          "midi": 42,
          "name": "F#2",
          "ticks": 675840,
          "time": 22.758604000000002,
          "velocity": 0.7874015748031497
        },
        {
          "duration": 0.25862049999999925,
          "durationTicks": 7680,
          "midi": 49,
          "name": "C#3",
          "ticks": 675840,
          "time": 22.758604000000002,
          "velocity": 0.7874015748031497
        },
        {
          "duration": 0.12931025000000318,
          "durationTicks": 3840,
          "midi": 40,
          "name": "E2",
          "ticks": 683520,
          "time": 23.0172245,
          "velocity": 0.7874015748031497
        },
        {
          "duration": 0.2586205000000028,
          "durationTicks": 7680,
          "midi": 56,
          "name": "G#3",
          "ticks": 683520,
          "time": 23.0172245,
          "velocity": 0.7874015748031497
        },
        {
          "duration": 0.12931024999999963,
          "durationTicks": 3840,
          "midi": 41,
          "name": "F2",
          "ticks": 687360,
          "time": 23.146534750000004,
          "velocity": 0.7874015748031497
        },
        {
          "duration": 0.12931024999999963,
          "durationTicks": 3840,
          "midi": 40,
          "name": "E2",
          "ticks": 691200,
          "time": 23.275845000000004,
          "velocity": 0.7874015748031497
        },
        {
          "duration": 0.25862049999999925,
          "durationTicks": 7680,
          "midi": 50,
          "name": "D3",
          "ticks": 691200,
          "time": 23.275845000000004,
          "velocity": 0.7874015748031497
        },
        {
          "duration": 0.12931024999999963,
          "durationTicks": 3840,
          "midi": 55,
          "name": "G3",
          "ticks": 695040,
          "time": 23.405155250000004,
          "velocity": 0.7874015748031497
        },
        {
          "duration": 0.25862049999999925,
          "durationTicks": 7680,
          "midi": 41,
          "name": "F2",
          "ticks": 698880,
          "time": 23.534465500000003,
          "velocity": 0.7874015748031497
        },
        {
          "duration": 0.25862049999999925,
          "durationTicks": 7680,
          "midi": 57,
          "name": "A3",
          "ticks": 698880,
          "time": 23.534465500000003,
          "velocity": 0.7874015748031497
        },
        {
          "duration": 0.25862049999999925,
          "durationTicks": 7680,
          "midi": 49,
          "name": "C#3",
          "ticks": 706560,
          "time": 23.793086000000002,
          "velocity": 0.7874015748031497
        },
        {
          "duration": 0.12931024999999963,
          "durationTicks": 3840,
          "midi": 60,
          "name": "C4",
          "ticks": 706560,
          "time": 23.793086000000002,
          "velocity": 0.7874015748031497
        },
        {
          "duration": 0.2586205000000028,
          "durationTicks": 7680,
          "midi": 44,
          "name": "G#2",
          "ticks": 714240,
          "time": 24.0517065,
          "velocity": 0.7874015748031497
        },
        {
          "duration": 0.2586205000000028,
          "durationTicks": 7680,
          "midi": 59,
          "name": "B3",
          "ticks": 714240,
          "time": 24.0517065,
          "velocity": 0.7874015748031497
        },
        {
          "duration": 0.25862049999999925,
          "durationTicks": 7680,
          "midi": 52,
          "name": "E3",
          "ticks": 721920,
          "time": 24.310327000000004,
          "velocity": 0.7874015748031497
        },
        {
          "duration": 0.12931024999999963,
          "durationTicks": 3840,
          "midi": 57,
          "name": "A3",
          "ticks": 721920,
          "time": 24.310327000000004,
          "velocity": 0.7874015748031497
        },
        {
          "duration": 0.25862049999999925,
          "durationTicks": 7680,
          "midi": 43,
          "name": "G2",
          "ticks": 729600,
          "time": 24.568947500000004,
          "velocity": 0.7874015748031497
        },
        {
          "duration": 0.25862049999999925,
          "durationTicks": 7680,
          "midi": 54,
          "name": "F#3",
          "ticks": 729600,
          "time": 24.568947500000004,
          "velocity": 0.7874015748031497
        }
];

export default cueSet1;
