const cueSet3 = [
  {
          "duration": 0.06465512500000001,
          "durationTicks": 1920,
          "midi": 37,
          "name": "C#2",
          "ticks": 0,
          "time": 0,
          "velocity": 0.6299212598425197
        },
        {
          "duration": 0.06465512500000004,
          "durationTicks": 1920,
          "midi": 37,
          "name": "C#2",
          "ticks": 15360,
          "time": 0.5172410000000001,
          "velocity": 0.6299212598425197
        },
        {
          "duration": 0.06465512500000004,
          "durationTicks": 1920,
          "midi": 37,
          "name": "C#2",
          "ticks": 30720,
          "time": 1.0344820000000001,
          "velocity": 0.6299212598425197
        },
        {
          "duration": 0.06465512500000004,
          "durationTicks": 1920,
          "midi": 37,
          "name": "C#2",
          "ticks": 46080,
          "time": 1.5517230000000002,
          "velocity": 0.6299212598425197
        },
        {
          "duration": 0.06465512499999981,
          "durationTicks": 1920,
          "midi": 37,
          "name": "C#2",
          "ticks": 61440,
          "time": 2.0689640000000002,
          "velocity": 0.6299212598425197
        },
        {
          "duration": 0.06465512499999981,
          "durationTicks": 1920,
          "midi": 37,
          "name": "C#2",
          "ticks": 76800,
          "time": 2.5862050000000005,
          "velocity": 0.6299212598425197
        },
        {
          "duration": 0.06465512499999981,
          "durationTicks": 1920,
          "midi": 37,
          "name": "C#2",
          "ticks": 92160,
          "time": 3.1034460000000004,
          "velocity": 0.6299212598425197
        },
        {
          "duration": 0.06465512500000026,
          "durationTicks": 1920,
          "midi": 37,
          "name": "C#2",
          "ticks": 107520,
          "time": 3.620687,
          "velocity": 0.6299212598425197
        },
        {
          "duration": 0.06465512499999981,
          "durationTicks": 1920,
          "midi": 37,
          "name": "C#2",
          "ticks": 122880,
          "time": 4.1379280000000005,
          "velocity": 0.6299212598425197
        },
        {
          "duration": 0.06465512499999981,
          "durationTicks": 1920,
          "midi": 37,
          "name": "C#2",
          "ticks": 138240,
          "time": 4.655169000000001,
          "velocity": 0.6299212598425197
        },
        {
          "duration": 0.06465512499999981,
          "durationTicks": 1920,
          "midi": 37,
          "name": "C#2",
          "ticks": 153600,
          "time": 5.172410000000001,
          "velocity": 0.6299212598425197
        },
        {
          "duration": 0.06465512499999981,
          "durationTicks": 1920,
          "midi": 37,
          "name": "C#2",
          "ticks": 168960,
          "time": 5.6896510000000005,
          "velocity": 0.6299212598425197
        },
        {
          "duration": 0.06465512499999981,
          "durationTicks": 1920,
          "midi": 37,
          "name": "C#2",
          "ticks": 184320,
          "time": 6.206892000000001,
          "velocity": 0.6299212598425197
        },
        {
          "duration": 0.06465512499999981,
          "durationTicks": 1920,
          "midi": 37,
          "name": "C#2",
          "ticks": 199680,
          "time": 6.724133000000001,
          "velocity": 0.6299212598425197
        },
        {
          "duration": 0.0646551250000007,
          "durationTicks": 1920,
          "midi": 37,
          "name": "C#2",
          "ticks": 215040,
          "time": 7.241374,
          "velocity": 0.6299212598425197
        },
        {
          "duration": 0.06465512499999981,
          "durationTicks": 1920,
          "midi": 37,
          "name": "C#2",
          "ticks": 230400,
          "time": 7.758615000000001,
          "velocity": 0.6299212598425197
        },
        {
          "duration": 0.06465512499999981,
          "durationTicks": 1920,
          "midi": 37,
          "name": "C#2",
          "ticks": 245760,
          "time": 8.275856000000001,
          "velocity": 0.6299212598425197
        },
        {
          "duration": 0.06465512499999981,
          "durationTicks": 1920,
          "midi": 37,
          "name": "C#2",
          "ticks": 261120,
          "time": 8.793097000000001,
          "velocity": 0.6299212598425197
        },
        {
          "duration": 0.06465512499999981,
          "durationTicks": 1920,
          "midi": 37,
          "name": "C#2",
          "ticks": 276480,
          "time": 9.310338000000002,
          "velocity": 0.6299212598425197
        },
        {
          "duration": 0.06465512499999981,
          "durationTicks": 1920,
          "midi": 37,
          "name": "C#2",
          "ticks": 291840,
          "time": 9.827579000000002,
          "velocity": 0.6299212598425197
        },
        {
          "duration": 0.06465512499999981,
          "durationTicks": 1920,
          "midi": 37,
          "name": "C#2",
          "ticks": 307200,
          "time": 10.344820000000002,
          "velocity": 0.6299212598425197
        },
        {
          "duration": 0.06465512499999981,
          "durationTicks": 1920,
          "midi": 37,
          "name": "C#2",
          "ticks": 322560,
          "time": 10.862061,
          "velocity": 0.6299212598425197
        },
        {
          "duration": 0.06465512499999981,
          "durationTicks": 1920,
          "midi": 37,
          "name": "C#2",
          "ticks": 337920,
          "time": 11.379302000000001,
          "velocity": 0.6299212598425197
        },
        {
          "duration": 0.06465512499999981,
          "durationTicks": 1920,
          "midi": 37,
          "name": "C#2",
          "ticks": 353280,
          "time": 11.896543000000001,
          "velocity": 0.6299212598425197
        },
        {
          "duration": 0.06465512499999981,
          "durationTicks": 1920,
          "midi": 37,
          "name": "C#2",
          "ticks": 368640,
          "time": 12.413784000000001,
          "velocity": 0.6299212598425197
        },
        {
          "duration": 0.06465512499999981,
          "durationTicks": 1920,
          "midi": 37,
          "name": "C#2",
          "ticks": 384000,
          "time": 12.931025000000002,
          "velocity": 0.6299212598425197
        },
        {
          "duration": 0.06465512499999981,
          "durationTicks": 1920,
          "midi": 37,
          "name": "C#2",
          "ticks": 399360,
          "time": 13.448266000000002,
          "velocity": 0.6299212598425197
        },
        {
          "duration": 0.06465512499999981,
          "durationTicks": 1920,
          "midi": 37,
          "name": "C#2",
          "ticks": 414720,
          "time": 13.965507000000002,
          "velocity": 0.6299212598425197
        },
        {
          "duration": 0.06465512500000159,
          "durationTicks": 1920,
          "midi": 37,
          "name": "C#2",
          "ticks": 430080,
          "time": 14.482748,
          "velocity": 0.6299212598425197
        },
        {
          "duration": 0.06465512499999981,
          "durationTicks": 1920,
          "midi": 37,
          "name": "C#2",
          "ticks": 445440,
          "time": 14.999989000000001,
          "velocity": 0.6299212598425197
        },
        {
          "duration": 0.06465512499999981,
          "durationTicks": 1920,
          "midi": 37,
          "name": "C#2",
          "ticks": 460800,
          "time": 15.517230000000001,
          "velocity": 0.6299212598425197
        },
        {
          "duration": 0.06465512499999804,
          "durationTicks": 1920,
          "midi": 37,
          "name": "C#2",
          "ticks": 476160,
          "time": 16.034471000000003,
          "velocity": 0.6299212598425197
        }
];

export default cueSet3;
